<svg width="500" height="400" viewBox="0 0 500 400" fill="none" xmlns="http://www.w3.org/2000/svg">
  <!-- Background -->
  <rect width="500" height="400" fill="white"/>
  <circle cx="250" cy="200" r="180" fill="#ecf0f1"/>
  
  <!-- Team Members Silhouettes -->
  <!-- Person 1 -->
  <circle cx="150" cy="170" r="40" fill="#2c3e50" opacity="0.8"/>
  <path d="M130 230C130 209.013 147.013 192 168 192H172C192.987 192 210 209.013 210 230V240C210 240 190 250 170 250C150 250 130 240 130 240V230Z" fill="#2c3e50" opacity="0.8"/>
  
  <!-- Person 2 -->
  <circle cx="250" cy="150" r="40" fill="#3498db" opacity="0.8"/>
  <path d="M230 210C230 189.013 247.013 172 268 172H272C292.987 172 310 189.013 310 210V220C310 220 290 230 270 230C250 230 230 220 230 220V210Z" fill="#3498db" opacity="0.8"/>
  
  <!-- Person 3 -->
  <circle cx="350" cy="170" r="40" fill="#e74c3c" opacity="0.8"/>
  <path d="M330 230C330 209.013 347.013 192 368 192H372C392.987 192 410 209.013 410 230V240C410 240 390 250 370 250C350 250 330 240 330 240V230Z" fill="#e74c3c" opacity="0.8"/>
  
  <!-- Connection Lines -->
  <line x1="190" y1="170" x2="210" y2="170" stroke="#2c3e50" stroke-width="2" stroke-dasharray="5 5"/>
  <line x1="290" y1="170" x2="310" y2="170" stroke="#2c3e50" stroke-width="2" stroke-dasharray="5 5"/>
  
  <!-- Digital Elements -->
  <!-- Laptop -->
  <rect x="130" y="280" width="100" height="70" rx="5" fill="#FFFFFF" stroke="#2c3e50" stroke-width="2"/>
  <rect x="130" y="280" width="100" height="10" rx="5" fill="#2c3e50"/>
  <rect x="175" y="285" width="10" height="2" rx="1" fill="white"/>
  
  <!-- Tablet -->
  <rect x="250" y="270" width="70" height="90" rx="5" fill="#FFFFFF" stroke="#3498db" stroke-width="2"/>
  <rect x="255" y="275" width="60" height="80" rx="2" fill="#ecf0f1"/>
  <circle cx="285" cy="350" r="3" fill="#3498db"/>
  
  <!-- Smartphone -->
  <rect x="340" y="290" width="40" height="70" rx="5" fill="#FFFFFF" stroke="#e74c3c" stroke-width="2"/>
  <rect x="345" y="295" width="30" height="55" rx="2" fill="#ecf0f1"/>
  <circle cx="360" cy="355" r="3" fill="#e74c3c"/>
  
  <!-- Floating UI Elements -->
  <!-- Code Fragment -->
  <rect x="120" y="80" width="80" height="40" rx="5" fill="white" stroke="#2c3e50" stroke-width="1.5"/>
  <line x1="130" y1="90" x2="190" y2="90" stroke="#2c3e50" stroke-width="1.5"/>
  <line x1="130" y1="100" x2="170" y2="100" stroke="#3498db" stroke-width="1.5"/>
  <line x1="130" y1="110" x2="180" y2="110" stroke="#e74c3c" stroke-width="1.5"/>
  
  <!-- Chart -->
  <rect x="320" y="70" width="80" height="50" rx="5" fill="white" stroke="#3498db" stroke-width="1.5"/>
  <line x1="330" y1="100" x2="330" y2="80" stroke="#ecf0f1" stroke-width="5"/>
  <line x1="340" y1="100" x2="340" y2="70" stroke="#3498db" stroke-width="5"/>
  <line x1="350" y1="100" x2="350" y2="90" stroke="#ecf0f1" stroke-width="5"/>
  <line x1="360" y1="100" x2="360" y2="60" stroke="#e74c3c" stroke-width="5"/>
  <line x1="370" y1="100" x2="370" y2="80" stroke="#ecf0f1" stroke-width="5"/>
  <line x1="380" y1="100" x2="380" y2="75" stroke="#3498db" stroke-width="5"/>
  <line x1="390" y1="100" x2="390" y2="85" stroke="#ecf0f1" stroke-width="5"/>
  
  <!-- UI Component -->
  <rect x="220" y="60" width="60" height="40" rx="5" fill="white" stroke="#2c3e50" stroke-width="1.5"/>
  <rect x="230" y="70" width="40" height="5" rx="2" fill="#ecf0f1"/>
  <rect x="230" y="80" width="30" height="5" rx="2" fill="#2c3e50" opacity="0.6"/>
  <rect x="230" y="90" width="35" height="5" rx="2" fill="#3498db" opacity="0.6"/>
  
  <!-- Connection Lines -->
  <path d="M160 120C170 140 190 150 210 140" stroke="#2c3e50" stroke-width="1" stroke-dasharray="3 3"/>
  <path d="M250 100C260 120 280 130 300 120" stroke="#3498db" stroke-width="1" stroke-dasharray="3 3"/>
  <path d="M320 120C310 140 290 150 270 140" stroke="#e74c3c" stroke-width="1" stroke-dasharray="3 3"/>
</svg> 