<svg width="600" height="400" viewBox="0 0 600 400" fill="none" xmlns="http://www.w3.org/2000/svg">
  <!-- Background Elements -->
  <circle cx="300" cy="200" r="150" fill="#F0F5FF" />
  <circle cx="300" cy="200" r="120" fill="#E0EAFF" />
  
  <!-- Abstract Digital Elements -->
  <path d="M250 100L300 50L350 100L300 150L250 100Z" fill="#0055FF" fill-opacity="0.7" />
  <path d="M350 200L400 150L450 200L400 250L350 200Z" fill="#00E5FF" fill-opacity="0.6" />
  <path d="M150 200L200 150L250 200L200 250L150 200Z" fill="#0055FF" fill-opacity="0.5" />
  <path d="M250 300L300 250L350 300L300 350L250 300Z" fill="#00E5FF" fill-opacity="0.7" />
  
  <!-- Connection Lines -->
  <line x1="300" y1="150" x2="300" y2="250" stroke="#0055FF" stroke-width="2" stroke-dasharray="5 5" />
  <line x1="250" y1="200" x2="350" y2="200" stroke="#0055FF" stroke-width="2" stroke-dasharray="5 5" />
  <line x1="270" y1="130" x2="380" y2="180" stroke="#00E5FF" stroke-width="2" stroke-dasharray="5 5" />
  <line x1="220" y1="180" x2="330" y2="280" stroke="#00E5FF" stroke-width="2" stroke-dasharray="5 5" />
  
  <!-- Devices and UI Elements -->
  <rect x="100" y="150" width="80" height="50" rx="5" fill="#FFFFFF" stroke="#0055FF" stroke-width="2" />
  <rect x="110" y="160" width="60" height="10" rx="2" fill="#E0EAFF" />
  <rect x="110" y="175" width="40" height="5" rx="2" fill="#0055FF" fill-opacity="0.5" />
  <rect x="110" y="185" width="50" height="5" rx="2" fill="#0055FF" fill-opacity="0.3" />
  
  <rect x="420" y="150" width="80" height="50" rx="5" fill="#FFFFFF" stroke="#00E5FF" stroke-width="2" />
  <rect x="430" y="160" width="60" height="10" rx="2" fill="#E0EAFF" />
  <rect x="430" y="175" width="40" height="5" rx="2" fill="#00E5FF" fill-opacity="0.5" />
  <rect x="430" y="185" width="50" height="5" rx="2" fill="#00E5FF" fill-opacity="0.3" />
  
  <rect x="260" y="50" width="80" height="30" rx="15" fill="#FFFFFF" stroke="#0055FF" stroke-width="2" />
  <circle cx="280" cy="65" r="5" fill="#0055FF" />
  <circle cx="300" cy="65" r="5" fill="#00E5FF" />
  <circle cx="320" cy="65" r="5" fill="#0055FF" fill-opacity="0.5" />
  
  <!-- Mobile Device -->
  <rect x="260" y="300" width="80" height="120" rx="10" fill="#FFFFFF" stroke="#0055FF" stroke-width="2" />
  <rect x="270" y="310" width="60" height="90" rx="2" fill="#E0EAFF" />
  <circle cx="300" cy="410" r="5" fill="#0055FF" />
  
  <!-- Data Points and Analytics Elements -->
  <circle cx="150" cy="120" r="5" fill="#0055FF" />
  <circle cx="180" cy="100" r="5" fill="#00E5FF" />
  <circle cx="210" cy="140" r="5" fill="#0055FF" fill-opacity="0.6" />
  <circle cx="450" cy="120" r="5" fill="#0055FF" />
  <circle cx="420" cy="100" r="5" fill="#00E5FF" />
  <circle cx="390" cy="140" r="5" fill="#0055FF" fill-opacity="0.6" />
  
  <!-- Data Flow Lines -->
  <path d="M150 120C200 80 250 180 300 150" stroke="#0055FF" stroke-width="1.5" fill="none" />
  <path d="M180 100C230 60 280 160 330 130" stroke="#00E5FF" stroke-width="1.5" fill="none" />
  <path d="M210 140C260 100 310 200 360 170" stroke="#0055FF" stroke-opacity="0.6" stroke-width="1.5" fill="none" />
  <path d="M450 120C400 80 350 180 300 150" stroke="#0055FF" stroke-width="1.5" fill="none" />
  <path d="M420 100C370 60 320 160 270 130" stroke="#00E5FF" stroke-width="1.5" fill="none" />
  <path d="M390 140C340 100 290 200 240 170" stroke="#0055FF" stroke-opacity="0.6" stroke-width="1.5" fill="none" />
</svg> 