<?xml version="1.0" encoding="UTF-8" standalone="no"?>
<svg width="400" height="300" viewBox="0 0 400 300" fill="none" xmlns="http://www.w3.org/2000/svg">
  <rect width="400" height="300" fill="#E0EAFF"/>
  
  <!-- Automation Flow Diagram -->
  <rect x="50" y="120" width="80" height="60" rx="5" fill="white" stroke="#0055FF" stroke-width="2"/>
  <rect x="160" y="120" width="80" height="60" rx="5" fill="white" stroke="#0055FF" stroke-width="2"/>
  <rect x="270" y="120" width="80" height="60" rx="5" fill="white" stroke="#0055FF" stroke-width="2"/>
  
  <!-- Connection Arrows -->
  <path d="M130 150L160 150" stroke="#0055FF" stroke-width="2"/>
  <path d="M155 145L160 150L155 155" stroke="#0055FF" stroke-width="2" fill="none"/>
  
  <path d="M240 150L270 150" stroke="#0055FF" stroke-width="2"/>
  <path d="M265 145L270 150L265 155" stroke="#0055FF" stroke-width="2" fill="none"/>
  
  <!-- Box Icons -->
  <rect x="65" y="135" width="50" height="10" rx="2" fill="#0055FF" opacity="0.3"/>
  <rect x="65" y="150" width="40" height="10" rx="2" fill="#0055FF" opacity="0.5"/>
  <circle cx="90" cy="130" r="5" fill="#0055FF"/>
  
  <rect x="175" y="135" width="50" height="10" rx="2" fill="#0055FF" opacity="0.3"/>
  <rect x="175" y="150" width="40" height="10" rx="2" fill="#0055FF" opacity="0.5"/>
  <circle cx="200" cy="130" r="5" fill="#0055FF"/>
  
  <rect x="285" y="135" width="50" height="10" rx="2" fill="#0055FF" opacity="0.3"/>
  <rect x="285" y="150" width="40" height="10" rx="2" fill="#0055FF" opacity="0.5"/>
  <circle cx="310" cy="130" r="5" fill="#0055FF"/>
  
  <!-- Gear Icons -->
  <circle cx="90" cy="220" r="20" fill="#FFFFFF" stroke="#00E5FF" stroke-width="2"/>
  <path d="M90 210V230" stroke="#00E5FF" stroke-width="2"/>
  <path d="M80 220H100" stroke="#00E5FF" stroke-width="2"/>
  <path d="M82 212L98 228" stroke="#00E5FF" stroke-width="2"/>
  <path d="M82 228L98 212" stroke="#00E5FF" stroke-width="2"/>
  <circle cx="90" cy="220" r="5" fill="#00E5FF"/>
  
  <circle cx="310" cy="220" r="20" fill="#FFFFFF" stroke="#00E5FF" stroke-width="2"/>
  <path d="M310 210V230" stroke="#00E5FF" stroke-width="2"/>
  <path d="M300 220H320" stroke="#00E5FF" stroke-width="2"/>
  <path d="M302 212L318 228" stroke="#00E5FF" stroke-width="2"/>
  <path d="M302 228L318 212" stroke="#00E5FF" stroke-width="2"/>
  <circle cx="310" cy="220" r="5" fill="#00E5FF"/>
  
  <!-- Connection Lines -->
  <path d="M90 200L90 180" stroke="#00E5FF" stroke-width="1.5" stroke-dasharray="4 2"/>
  <path d="M310 200L310 180" stroke="#00E5FF" stroke-width="1.5" stroke-dasharray="4 2"/>
  <path d="M110 220L290 220" stroke="#00E5FF" stroke-width="1.5" stroke-dasharray="4 2"/>
  
  <!-- Process Flow Lines -->
  <path d="M50 80C120 50 280 50 350 80" stroke="#0055FF" stroke-width="1.5" fill="none"/>
  <circle cx="50" cy="80" r="3" fill="#0055FF"/>
  <circle cx="130" cy="60" r="3" fill="#0055FF"/>
  <circle cx="200" cy="55" r="3" fill="#0055FF"/>
  <circle cx="270" cy="60" r="3" fill="#0055FF"/>
  <circle cx="350" cy="80" r="3" fill="#0055FF"/>
  
  <text x="200" y="260" font-family="Arial, sans-serif" font-weight="bold" font-size="16" fill="#333333" text-anchor="middle">Supply Chain Automation</text>
</svg> 