<svg width="400" height="300" viewBox="0 0 400 300" fill="none" xmlns="http://www.w3.org/2000/svg">
  <rect width="400" height="300" fill="#F0F5FF"/>
  <rect x="50" y="50" width="300" height="200" rx="10" fill="white" stroke="#0055FF" stroke-width="2"/>
  
  <!-- E-commerce UI Elements -->
  <rect x="70" y="70" width="260" height="40" rx="5" fill="#E0EAFF"/>
  <rect x="80" y="80" width="120" height="20" rx="2" fill="#0055FF" opacity="0.7"/>
  <rect x="240" y="80" width="80" height="20" rx="10" fill="#0055FF"/>
  <text x="260" y="95" font-family="Arial, sans-serif" font-size="12" fill="white" text-anchor="middle">SHOP</text>
  
  <rect x="70" y="130" width="80" height="100" rx="5" fill="#E0EAFF"/>
  <rect x="160" y="130" width="80" height="100" rx="5" fill="#E0EAFF"/>
  <rect x="250" y="130" width="80" height="100" rx="5" fill="#E0EAFF"/>
  
  <rect x="80" y="190" width="60" height="10" rx="2" fill="#0055FF" opacity="0.5"/>
  <rect x="80" y="210" width="40" height="10" rx="2" fill="#0055FF" opacity="0.7"/>
  
  <rect x="170" y="190" width="60" height="10" rx="2" fill="#0055FF" opacity="0.5"/>
  <rect x="170" y="210" width="40" height="10" rx="2" fill="#0055FF" opacity="0.7"/>
  
  <rect x="260" y="190" width="60" height="10" rx="2" fill="#0055FF" opacity="0.5"/>
  <rect x="260" y="210" width="40" height="10" rx="2" fill="#0055FF" opacity="0.7"/>
  
  <text x="200" y="260" font-family="Arial, sans-serif" font-weight="bold" font-size="16" fill="#333333" text-anchor="middle">E-commerce Platform</text>
</svg> 