<?xml version="1.0" encoding="UTF-8" standalone="no"?>
<svg width="400" height="300" viewBox="0 0 400 300" fill="none" xmlns="http://www.w3.org/2000/svg">
  <rect width="400" height="300" fill="#ecf0f1"/>
  
  <!-- Background Elements -->
  <circle cx="200" cy="150" r="100" fill="#ecf0f1"/>
  <circle cx="200" cy="150" r="80" fill="#FFFFFF"/>
  
  <!-- Brain Visualization -->
  <path d="M160 100C180 80 220 80 240 100" stroke="#2c3e50" stroke-width="2" fill="none"/>
  <path d="M150 120C180 90 220 90 250 120" stroke="#2c3e50" stroke-width="2" fill="none"/>
  <path d="M140 140C180 100 220 100 260 140" stroke="#3498db" stroke-width="2" fill="none"/>
  <path d="M140 160C180 120 220 120 260 160" stroke="#3498db" stroke-width="2" fill="none"/>
  <path d="M140 180C180 140 220 140 260 180" stroke="#e74c3c" stroke-width="2" fill="none"/>
  <path d="M150 200C180 170 220 170 250 200" stroke="#e74c3c" stroke-width="2" fill="none"/>
  <path d="M160 220C180 200 220 200 240 220" stroke="#2c3e50" stroke-width="2" fill="none"/>
  
  <!-- Connection Points -->
  <circle cx="160" cy="100" r="4" fill="#3498db"/>
  <circle cx="240" cy="100" r="4" fill="#3498db"/>
  <circle cx="150" cy="120" r="4" fill="#e74c3c"/>
  <circle cx="250" cy="120" r="4" fill="#e74c3c"/>
  <circle cx="140" cy="140" r="4" fill="#2c3e50"/>
  <circle cx="260" cy="140" r="4" fill="#2c3e50"/>
  <circle cx="140" cy="160" r="4" fill="#3498db"/>
  <circle cx="260" cy="160" r="4" fill="#3498db"/>
  <circle cx="140" cy="180" r="4" fill="#e74c3c"/>
  <circle cx="260" cy="180" r="4" fill="#e74c3c"/>
  <circle cx="150" cy="200" r="4" fill="#2c3e50"/>
  <circle cx="250" cy="200" r="4" fill="#2c3e50"/>
  <circle cx="160" cy="220" r="4" fill="#3498db"/>
  <circle cx="240" cy="220" r="4" fill="#3498db"/>
  
  <!-- Data Visualization -->
  <rect x="300" y="110" width="60" height="80" rx="5" fill="white" stroke="#2c3e50" stroke-width="1.5"/>
  <line x1="310" y1="130" x2="350" y2="130" stroke="#ecf0f1" stroke-width="1"/>
  <line x1="310" y1="150" x2="350" y2="150" stroke="#ecf0f1" stroke-width="1"/>
  <line x1="310" y1="170" x2="350" y2="170" stroke="#ecf0f1" stroke-width="1"/>
  <path d="M310 160L320 140L330 155L340 125L350 135" stroke="#3498db" stroke-width="2" fill="none"/>
  
  <!-- Stats Dashboard -->
  <rect x="40" y="110" width="60" height="80" rx="5" fill="white" stroke="#3498db" stroke-width="1.5"/>
  <rect x="50" y="120" width="40" height="5" rx="2" fill="#ecf0f1"/>
  <rect x="50" y="130" width="30" height="5" rx="2" fill="#ecf0f1"/>
  <rect x="50" y="145" width="40" height="20" rx="2" fill="#e74c3c" opacity="0.1"/>
  <text x="70" y="160" font-family="Arial, sans-serif" font-size="10" fill="#e74c3c" text-anchor="middle">85%</text>
  <rect x="50" y="170" width="40" height="5" rx="2" fill="#ecf0f1"/>
  <rect x="50" y="180" width="30" height="5" rx="2" fill="#ecf0f1"/>
  
  <text x="200" y="260" font-family="Arial, sans-serif" font-weight="bold" font-size="16" fill="#2c3e50" text-anchor="middle">Predictive Analytics System</text>
</svg> 