<svg width="400" height="300" viewBox="0 0 400 300" fill="none" xmlns="http://www.w3.org/2000/svg">
  <rect width="400" height="300" fill="#ecf0f1"/>
  <rect x="50" y="50" width="300" height="200" rx="10" fill="white" stroke="#2c3e50" stroke-width="2"/>
  
  <!-- E-commerce UI Elements -->
  <rect x="70" y="70" width="260" height="40" rx="5" fill="#ecf0f1"/>
  <rect x="80" y="80" width="120" height="20" rx="2" fill="#2c3e50" opacity="0.8"/>
  <rect x="240" y="80" width="80" height="20" rx="10" fill="#3498db"/>
  <text x="260" y="95" font-family="Arial, sans-serif" font-size="12" fill="white" text-anchor="middle">SHOP</text>
  
  <rect x="70" y="130" width="80" height="100" rx="5" fill="#ecf0f1"/>
  <rect x="160" y="130" width="80" height="100" rx="5" fill="#ecf0f1"/>
  <rect x="250" y="130" width="80" height="100" rx="5" fill="#ecf0f1"/>
  
  <rect x="80" y="190" width="60" height="10" rx="2" fill="#2c3e50" opacity="0.6"/>
  <rect x="80" y="210" width="40" height="10" rx="2" fill="#3498db" opacity="0.8"/>
  
  <rect x="170" y="190" width="60" height="10" rx="2" fill="#2c3e50" opacity="0.6"/>
  <rect x="170" y="210" width="40" height="10" rx="2" fill="#e74c3c" opacity="0.8"/>
  
  <rect x="260" y="190" width="60" height="10" rx="2" fill="#2c3e50" opacity="0.6"/>
  <rect x="260" y="210" width="40" height="10" rx="2" fill="#3498db" opacity="0.8"/>
  
  <text x="200" y="260" font-family="Arial, sans-serif" font-weight="bold" font-size="16" fill="#2c3e50" text-anchor="middle">E-commerce Platform</text>
</svg> 